<?xml version="1.0" standalone="no"?><!DOCTYPE svg PUBLIC "-//W3C//DTD SVG 1.1//EN" "http://www.w3.org/Graphics/SVG/1.1/DTD/svg11.dtd"><svg t="1622691827184" class="icon" viewBox="0 0 1024 1024" version="1.1" xmlns="http://www.w3.org/2000/svg" p-id="2430" xmlns:xlink="http://www.w3.org/1999/xlink" width="200" height="200"><defs><style type="text/css"></style></defs><path d="M0 0h1024v1024H0z" fill="#10002A" p-id="2431"></path><path d="M170.666667 682.666667l153.6-409.6h56.888889l170.666666 409.6H489.244444l-45.511111-125.155556h-170.666666L227.555556 682.666667H170.666667z m119.466666-164.977778h136.533334l-39.822223-113.777778c-17.066667-34.133333-28.444444-62.577778-34.133333-85.333333-5.688889 28.444444-11.377778 51.2-22.755555 79.644444l-39.822223 119.466667zM790.755556 585.955556l51.2 5.688888c-5.688889 28.444444-22.755556 51.2-45.511112 68.266667s-51.2 22.755556-85.333333 22.755556c-45.511111 0-79.644444-11.377778-102.4-39.822223-22.755556-28.444444-39.822222-62.577778-39.822222-113.777777 0-51.2 11.377778-85.333333 39.822222-113.777778s56.888889-39.822222 96.711111-39.822222 73.955556 11.377778 96.711111 39.822222 39.822222 62.577778 39.822223 113.777778v11.377777h-221.866667c0 34.133333 11.377778 56.888889 28.444444 73.955556s39.822222 28.444444 62.577778 28.444444c17.066667 0 34.133333-5.688889 45.511111-17.066666s22.755556-17.066667 34.133334-39.822222zM625.777778 506.311111h164.977778c0-22.755556-5.688889-45.511111-17.066667-56.888889-17.066667-17.066667-34.133333-28.444444-62.577778-28.444444-22.755556 0-39.822222 5.688889-56.888889 22.755555s-28.444444 39.822222-28.444444 62.577778z" fill="#CBAFEF" p-id="2432"></path></svg>