<?xml version="1.0" standalone="no"?><!DOCTYPE svg PUBLIC "-//W3C//DTD SVG 1.1//EN" "http://www.w3.org/Graphics/SVG/1.1/DTD/svg11.dtd"><svg t="1622691860984" class="icon" viewBox="0 0 1024 1024" version="1.1" xmlns="http://www.w3.org/2000/svg" p-id="3208" xmlns:xlink="http://www.w3.org/1999/xlink" width="200" height="200"><defs><style type="text/css"></style></defs><path d="M364.513148 866.800574q0-48.971784-80.803444-48.971784-77.375418 0-77.375418 50.930655 0 49.461502 84.231468 49.461502 73.947394 0 73.947394-51.420373z m-28.893353-369.736968q0-29.872788-14.691535-49.95122t-43.584887-20.078431q-60.725012 0-60.725012 71.009087 0 66.111908 60.725012 66.111908 58.276423 0 58.276422-67.091344z m131.734099-158.66858v98.923004q-17.629842 5.876614-38.687709 10.773792 7.835485 21.057867 7.835485 41.136299 0 62.194165-35.749402 106.023912t-96.474414 55.093256q-19.588714 3.917743-29.138212 13.222382t-9.549498 28.403635q0 15.181253 11.018652 25.220468t28.403634 15.670971 38.442851 10.773793 42.115734 12.487804 38.44285 18.364419 28.403635 31.341942 11.018651 48.237207q0 148.874223-177.767575 148.874223-33.790531 0-63.663319-6.121473t-56.807269-20.078431-42.850311-40.156863-15.91583-62.439025q0-80.803443 89.128647-110.186513v-1.958872q-32.811095-20.078431-32.811096-61.704447 0-53.379244 30.852224-67.091344v-1.958871q-35.259684-11.753228-58.521281-53.134386t-23.261598-81.048302q0-68.07078 46.523195-113.36968t115.083692-45.2989q47.012912 0 87.169775 23.016739 47.992348 0 106.758489-23.016739z m155.730272 431.441416h-108.71736q1.958871-22.037303 1.958872-65.62219V405.976088q0-46.033477-1.958872-62.683883h108.71736q-1.958871 16.160689-1.958871 60.725012v300.197035q0 43.584888 1.958871 65.62219z m294.320421-108.71736v95.984696q-34.769967 19.098996-85.210904 19.098996-30.362506 0-52.399808-9.794357t-34.280249-24.485892-19.343855-38.197991-9.05978-45.054041-1.958871-50.440938V436.338594h0.979436v-1.958871q-3.428025 0-9.304639-0.489718t-8.814921-0.489718q-10.284075 0-28.893353 2.938307V343.292205h47.012913v-37.218556q0-26.444763-2.938307-43.584888h111.165949q-2.938307 20.078431-2.938307 80.803444h83.74175v93.046389q-7.345768 0-21.302726-0.979436t-20.813008-0.979435h-41.626016v178.747011q0 64.153037 42.605452 64.153036 29.872788 0 53.379244-16.160688z m-282.077475-463.762793q0 28.403635-19.098995 49.70636t-47.012913 21.302726q-28.403635 0-47.992348-21.302726t-19.588713-49.70636q0-28.893352 19.343854-50.440937t48.237207-21.547585q28.403635 0 47.257772 21.792443t18.854136 50.196079z" p-id="3209"></path></svg>